<?xml version="1.0" encoding="UTF-8" standalone="no"?>
<!-- Created with Inkscape (http://www.inkscape.org/) -->

<svg
   xmlns:dc="http://purl.org/dc/elements/1.1/"
   xmlns:cc="http://creativecommons.org/ns#"
   xmlns:rdf="http://www.w3.org/1999/02/22-rdf-syntax-ns#"
   xmlns:svg="http://www.w3.org/2000/svg"
   xmlns="http://www.w3.org/2000/svg"
   xmlns:sodipodi="http://sodipodi.sourceforge.net/DTD/sodipodi-0.dtd"
   xmlns:inkscape="http://www.inkscape.org/namespaces/inkscape"
   width="11in"
   height="8.5in"
   viewBox="0 0 279.40001 215.9"
   version="1.1"
   id="svg4601"
   inkscape:version="0.92.2 (5c3e80d, 2017-08-06)"
   sodipodi:docname="puzzle.svg">
  <defs
     id="defs4595" />
  <sodipodi:namedview
     id="base"
     pagecolor="#ffffff"
     bordercolor="#666666"
     borderopacity="1.0"
     inkscape:pageopacity="0.0"
     inkscape:pageshadow="2"
     inkscape:zoom="1"
     inkscape:cx="533.25941"
     inkscape:cy="410.16129"
     inkscape:document-units="mm"
     inkscape:current-layer="layer1"
     showgrid="false"
     units="in"
     inkscape:showpageshadow="false"
     showborder="true"
     inkscape:window-width="1920"
     inkscape:window-height="1080"
     inkscape:window-x="0"
     inkscape:window-y="23"
     inkscape:window-maximized="0" />
  <metadata
     id="metadata4598">
    <rdf:RDF>
      <cc:Work
         rdf:about="">
        <dc:format>image/svg+xml</dc:format>
        <dc:type
           rdf:resource="http://purl.org/dc/dcmitype/StillImage" />
        <dc:title></dc:title>
      </cc:Work>
    </rdf:RDF>
  </metadata>
  <g
     inkscape:label="Layer 1"
     inkscape:groupmode="layer"
     id="layer1"
     transform="translate(0,-81.100005)">
    <path
       id="path816"
       style="fill:none;fill-rule:evenodd;stroke:#000000;stroke-width:0.5;stroke-linecap:butt;stroke-linejoin:miter;stroke-miterlimit:4;stroke-dasharray:none;stroke-opacity:1"
       d="M 73.9731,217.84561 91.337,190.98967 c 0,0 -4.25948,29.97861 12.49177,12.95901 16.75125,-17.0196 1.73141,-28.38719 1.73141,-28.38719 l 19.27774,-15.37389 -20.32267,-13.7079 c 0,0 6.94415,30.7526 -19.13483,12.38388 -26.078965,-18.36873 4.96943,-21.67684 4.96943,-21.67684 l -13.22071,-17.3018 -21.96615,20.67715 c 0,0 -0.539643,-13.86417 -21.017958,-6.99825 -20.478315,6.86591 10.460147,28.03338 10.460147,28.03338 l -12.058774,10.24932 v 0 M 73.9731,217.84561 57.69432,199.93259 c -9.036731,15.41778 -12.432824,11.61184 -18.074264,5.33513 -3.901327,-4.224 -6.792417,-15.19311 7.128195,-17.38009 L 32.546405,171.84654"
       inkscape:connector-curvature="0"
       sodipodi:nodetypes="cczccczccczcccccccc" />
    <path
       id="path819"
       style="fill:none;fill-rule:evenodd;stroke:#000000;stroke-width:0.5;stroke-linecap:butt;stroke-linejoin:miter;stroke-miterlimit:4;stroke-dasharray:none;stroke-opacity:1"
       d="m 189.92665,119.73423 29.9421,3.43453 c 0,0 -14.48317,-22.14631 12.43541,-20.6375 26.24471,1.47104 16.13959,21.69583 16.13959,21.69583 l 14.81666,-1.05833 -0.79375,21.43125 c 0,0 -36.91889,-10.19679 -26.19375,11.37708 10.72514,21.57387 23.8125,11.1125 23.8125,11.1125 l -0.52916,17.19792 -26.19375,0.26458 c 0,0 19.32545,21.12 -13.22917,20.6375 -32.55462,-0.4825 -8.73125,-21.69583 -8.73125,-21.69583 l -21.75353,-1.85632 v 0 m 0.2781,-61.90321 v 24.20485 c 17.05682,-5.33249 17.01047,-0.23185 16.96412,8.20739 0.0464,5.74981 -5.19121,15.81198 -16.96412,8.06828 l -0.2781,21.42269"
       inkscape:connector-curvature="0"
       sodipodi:nodetypes="ccsccczccczcccccccc" />
  </g>
</svg>
